PathFileType	4	(X/Y/Z)	 s04c0202.trc
DataRate	CameraRate	NumFrames	NumMarkers	Units	OrigDataRate	OrigDataStartFrame	OrigNumFrames
200	200	5	50	mm	200	1501	2000
Frame#	Time	racr			lacr			c7			jug			rlel			rdr			llel			ldr			s2			lic			ric			lasi			rasi			rpsi			lpsi			rgt			lgt			rth1			rth2			rth3			rth4			rlfc			rmfc			rsh1			rsh2			rsh3			rsh4			rlmal			rmmal			rcal			rtoe			rmt5			lth1			lth2			lth4			lth3			llfc			lmfc			lsh1			lsh2			lsh3			lsh4			llmal			lmmal			lcal			ltoe			lmt5			SBIKE			LBIKE			RBIKE			
		X1	Y1	Z1	X2	Y2	Z2	X3	Y3	Z3	X4	Y4	Z4	X5	Y5	Z5	X6	Y6	Z6	X7	Y7	Z7	X8	Y8	Z8	X9	Y9	Z9	X10	Y10	Z10	X11	Y11	Z11	X12	Y12	Z12	X13	Y13	Z13	X14	Y14	Z14	X15	Y15	Z15	X16	Y16	Z16	X17	Y17	Z17	X18	Y18	Z18	X19	Y19	Z19	X20	Y20	Z20	X21	Y21	Z21	X22	Y22	Z22	X23	Y23	Z23	X24	Y24	Z24	X25	Y25	Z25	X26	Y26	Z26	X27	Y27	Z27	X28	Y28	Z28	X29	Y29	Z29	X30	Y30	Z30	X31	Y31	Z31	X32	Y32	Z32	X33	Y33	Z33	X34	Y34	Z34	X35	Y35	Z35	X36	Y36	Z36	X37	Y37	Z37	X38	Y38	Z38	X39	Y39	Z39	X40	Y40	Z40	X41	Y41	Z41	X42	Y42	Z42	X43	Y43	Z43	X44	Y44	Z44	X45	Y45	Z45	X46	Y46	Z46	X47	Y47	Z47	X48	Y48	Z48	X49	Y49	Z49	X50	Y50	Z50	
1501	7.5050	522.443970	1299.391922	-98.933131	538.348927	1315.876038	-376.003549	506.640378	1386.246903	-240.149566	437.982783	1243.319601	-259.762634	483.225250	1059.228196	106.195293	688.721351	943.356928	-65.061826	488.645767	1099.287100	-570.711019	661.538297	908.962001	-446.174821	-66.759694	1180.953160	-274.752503	85.446955	1211.300002	-422.318275	78.895967	1187.052412	-101.001151	126.910183	1168.656060	-378.248221	130.395540	1141.222290	-143.255198	-38.735858	1224.569895	-227.355498	-39.495074	1232.409691	-300.230819	30.514769	1121.940917	-92.914110	71.261639	1126.153873	-452.951647	134.907080	994.262557	-67.372908	205.746663	941.129822	-64.864372	242.761275	864.272527	-62.436764	232.647876	963.248011	-78.583001	310.413339	735.923049	-76.333742	305.705896	721.331723	-191.585023	225.274708	641.003108	-63.796049	188.770251	560.418762	-86.449154	116.580827	515.612402	-104.475086	217.511229	543.674961	-106.647108	29.735375	390.657166	-124.534346	65.373116	388.842859	-205.127678	-38.838899	394.652581	-175.596965	208.077132	219.040405	-146.434360	132.838724	235.457679	-100.553304	141.966540	1064.189422	-456.699934	225.920628	1043.226396	-451.977758	242.412253	1073.901439	-440.177411	289.954366	981.019254	-449.635802	414.072801	879.086464	-420.082660	434.840378	854.321480	-310.037042	396.589062	761.685945	-450.679651	385.473573	676.300850	-434.097613	336.039092	603.003546	-441.007076	408.206374	669.402829	-402.608752	280.118869	471.393317	-447.590459	265.797082	468.664602	-359.332409	195.752578	443.551860	-417.048699	494.923932	442.338100	-389.749869	433.861612	402.400430	-459.780283	-176.870906	935.559582	-280.131576	-3.286055	85.489425	-484.830912	-15.005121	80.449966	-84.359611	
1502	7.5100	521.393479	1299.268245	-97.956705	538.168762	1316.070388	-375.633086	506.220818	1386.218038	-239.250254	437.383859	1243.416506	-259.135121	482.085847	1058.664518	105.930460	687.828922	942.815659	-65.318785	488.136890	1099.792089	-570.012684	660.961296	909.328066	-446.108160	-65.737498	1178.216669	-274.519503	85.605104	1208.581478	-423.106010	79.384221	1185.771277	-101.577436	127.488413	1165.415334	-378.951879	131.041143	1140.286168	-143.957610	-37.383866	1219.537239	-227.807676	-40.486833	1229.705529	-301.223567	31.578077	1120.879549	-92.793586	71.556156	1119.765213	-452.734447	138.099812	995.830826	-68.537259	209.761271	943.912809	-65.738867	247.970701	867.644300	-62.440865	236.248165	966.154026	-79.429070	316.358134	739.659986	-75.619307	311.836060	725.096843	-190.851215	229.919258	646.715556	-63.200585	191.468929	567.071658	-86.165901	118.271533	524.121572	-104.308809	219.877912	549.833763	-106.476121	28.107668	401.602184	-124.968977	64.080623	399.135101	-205.389248	-40.309997	407.225176	-176.094965	203.525858	227.192484	-146.339026	128.680449	244.831989	-100.574935	142.060419	1057.388189	-457.047823	225.662716	1034.933311	-452.657187	242.814895	1065.398150	-441.301570	288.525039	971.642524	-450.216253	409.764415	867.216118	-421.141349	430.726233	842.852161	-311.086932	393.466852	749.498027	-451.578047	384.394441	664.136545	-434.094517	337.015914	589.629711	-440.288819	407.527466	658.071426	-402.670937	282.507455	457.808509	-447.511525	267.874824	452.427998	-361.548609	198.846030	428.104663	-416.933448	497.986375	433.929817	-389.625715	437.872570	392.561121	-459.593633	-176.787518	935.556241	-279.949507	-3.266788	85.494999	-484.820072	-15.000794	80.422404	-84.331867	
1503	7.5150	520.311182	1299.108292	-97.293286	538.020768	1316.125839	-375.157334	505.792109	1386.123156	-238.312485	436.768550	1243.470349	-258.600737	481.127148	1058.123330	105.670970	687.091242	942.299031	-65.582157	487.664720	1100.236876	-569.021430	660.516425	909.803559	-445.890647	-65.473502	1174.746433	-273.778717	85.810386	1205.819271	-423.681527	79.900312	1184.466703	-102.140466	127.764846	1162.574899	-379.130309	131.699532	1139.162392	-144.614513	-36.673052	1215.994781	-228.236466	-42.889547	1228.092913	-300.462185	32.776051	1119.573397	-92.627599	71.785533	1113.369401	-452.465045	141.187542	997.220753	-69.508729	213.572968	946.390094	-66.374758	252.985878	870.746191	-62.358622	240.017580	969.108804	-79.122653	322.137958	743.363148	-75.069108	317.738694	728.513553	-190.202198	234.422702	652.329748	-62.709093	194.142023	573.787800	-85.966295	119.963033	532.510203	-104.169795	223.152336	556.105821	-106.151600	27.002167	412.663969	-125.194501	62.970799	409.533552	-205.662339	-41.368834	419.440000	-176.315370	199.603968	235.639820	-146.391401	124.980267	254.548021	-100.539910	142.385179	1050.501586	-457.339128	225.523525	1026.740294	-453.274748	243.255797	1057.073045	-442.337166	287.218993	962.525670	-450.671344	405.727404	855.741922	-421.859820	426.959670	832.345729	-311.792781	390.739536	738.539149	-452.517980	383.191526	653.273290	-434.395488	337.345336	577.866533	-440.106975	406.801340	647.649568	-403.324733	284.717198	444.557108	-447.568585	270.298928	439.797664	-361.399843	201.635589	413.958748	-417.752122	500.577436	425.126862	-389.439103	441.305246	382.526127	-459.413066	-176.706942	935.473538	-279.930962	-3.236982	85.477160	-484.787429	-14.977745	80.402465	-84.298863	
1504	7.5200	519.425238	1298.893040	-96.521173	537.998473	1316.169437	-374.617994	505.419412	1385.995564	-237.428298	436.395570	1243.395579	-258.071247	480.402643	1057.607427	105.521702	686.522930	941.861769	-65.787807	487.335415	1100.565383	-568.278797	660.120914	910.219538	-445.593267	-65.579582	1172.632503	-274.244640	85.853804	1203.285393	-424.852696	80.376958	1183.061236	-102.607867	128.189839	1159.895287	-379.660875	132.386947	1138.456056	-145.349258	-36.422486	1213.561896	-228.699529	-44.105813	1226.144338	-298.938621	34.013877	1118.257532	-92.509793	71.971819	1107.358211	-452.111356	144.112124	998.316504	-70.223436	217.214130	948.728186	-66.804437	257.698800	873.668148	-62.220475	243.269005	971.540659	-79.708232	327.861797	747.010715	-74.538887	323.350242	731.737840	-189.641678	238.592598	658.088288	-62.340679	196.226540	580.319156	-86.410428	121.644180	540.928952	-104.088102	225.355074	562.385013	-106.086368	26.202231	423.654862	-125.412475	62.011171	419.953761	-205.952969	-41.876958	431.428900	-176.135388	196.320265	244.717175	-146.288233	122.005855	264.366904	-100.463293	142.619194	1044.109773	-457.913607	225.340400	1018.918553	-453.794889	243.646505	1049.017787	-443.317991	285.739259	953.601961	-451.044705	401.350892	845.403007	-422.764388	422.841566	823.074490	-311.736659	388.053375	728.163218	-452.983972	381.791938	642.781667	-434.872674	337.083285	566.626019	-440.550892	405.607126	637.483423	-403.860850	286.649023	431.855814	-447.805666	270.482720	430.127513	-362.879419	204.055788	399.416222	-417.513794	502.709696	415.815636	-389.547628	444.209022	372.184028	-459.199323	-176.537005	935.370939	-279.631034	-3.220847	85.480139	-484.778173	-14.952344	80.371134	-84.285355	
1505	7.5250	518.496719	1298.490586	-96.004317	538.100594	1316.077570	-374.117425	505.066300	1385.879630	-236.672255	436.010788	1243.381197	-257.890528	479.744270	1057.039140	105.394656	686.151703	941.546828	-65.846766	487.042001	1100.742029	-567.583319	659.755682	910.543428	-445.195330	-65.557874	1170.449949	-274.698698	85.936816	1200.893347	-425.632976	80.876127	1181.669372	-103.133756	128.537123	1157.599340	-380.253883	133.088467	1137.444698	-146.036731	-37.873256	1213.624890	-228.895359	-42.724634	1223.348491	-301.552295	35.269909	1116.909693	-92.483544	72.032336	1101.921701	-451.760459	146.780554	999.422899	-70.497606	220.611186	950.637661	-67.193295	262.241496	876.458945	-61.909379	246.243215	973.906370	-80.160896	333.549686	750.808590	-74.098637	328.833174	734.854141	-189.096592	242.813716	663.949989	-61.962667	198.782991	587.050075	-86.578398	123.534037	549.269610	-104.018794	227.571153	568.529097	-106.006325	25.853087	434.512250	-125.554896	61.466878	430.188293	-206.217700	-42.891435	443.526137	-176.888335	193.671700	253.989198	-146.449619	119.654773	274.544139	-100.381211	142.739867	1038.131612	-458.586931	224.974675	1011.430834	-454.403725	243.849778	1041.247319	-444.199190	284.212800	945.114396	-451.046769	397.031422	836.163894	-423.860281	418.516748	814.212614	-311.928722	384.989728	718.107074	-453.095990	380.038087	632.557409	-435.488653	336.300643	555.764304	-441.304665	403.937924	627.485453	-404.428094	288.472087	419.416475	-448.298113	272.878972	416.648405	-362.082674	206.076695	386.275618	-418.179247	504.564857	405.968466	-389.359497	446.682533	361.576413	-459.114777	-176.505752	935.322528	-279.522778	-3.206744	85.480172	-484.768687	-14.964741	80.362658	-84.279882	
